<svg width="88" height="168" viewBox="0 0 88 168" fill="none" xmlns="http://www.w3.org/2000/svg">
<path d="M40.1854 167.431C60.5751 149.936 102.892 117.448 64.6031 89.8394C54.3326 82.4338 43.9938 76.7222 32.2075 82.3372C22.6764 86.8778 30.5325 98.3181 39.9666 98.7559C52.1156 99.3197 62.1681 95.662 72.0998 87.124C80.6524 79.7715 86.2305 73.9047 86.9528 62.4958C88.2015 42.7716 71.3944 30.1919 52.4215 21.6519C37.9392 15.1333 28.3921 11.053 15.6103 9.45327C13.5354 9.19359 0.365009 8.07165 0.82645 7.92154C8.98331 5.2681 21.5316 3.42095 30.2133 2.17364C32.9717 1.73044 34.9603 1.25916 37.206 0.924757C38.8439 0.680868 34.0972 1.5411 32.9717 1.73044C23.3174 3.3545 11.8536 5.04127 2.41161 7.43156C-3.50554 8.92951 6.27723 17.375 10.4464 20.238C17.1423 24.836 22.9539 28.8268 27.1335 32.656" stroke="#FCFEFC" stroke-linecap="round" stroke-dasharray="6 6"/>
</svg>
