<svg width="88" height="169" viewBox="0 0 88 169" fill="none" xmlns="http://www.w3.org/2000/svg">
<path d="M47.8674 1.03734C27.4777 18.5323 -14.8395 51.0207 23.4497 78.6294C33.7202 86.035 44.059 91.7465 55.8452 86.1316C65.3763 81.591 57.5202 70.1507 48.0861 69.7129C35.9371 69.1491 25.8846 72.8068 15.953 81.3447C7.40034 88.6972 1.82219 94.564 1.09993 105.973C-0.148739 125.697 16.6583 138.277 35.6312 146.817C50.1135 153.335 59.6606 157.416 72.4425 159.015C74.5173 159.275 87.6877 160.397 87.2263 160.547C79.0694 163.201 66.5211 165.048 57.8395 166.295C55.0811 166.738 53.0925 167.21 50.8467 167.544C49.2088 167.788 53.9555 166.928 55.0811 166.738C64.7354 165.114 76.1991 163.427 85.6411 161.037C91.5583 159.539 81.7755 151.094 77.6063 148.231C70.9104 143.633 65.0988 139.642 60.9193 135.813" stroke="#FCFEFC" stroke-linecap="round" stroke-dasharray="6 6"/>
</svg>
